<svg xmlns="http://www.w3.org/2000/svg" viewBox="0 0 100 100">
  <rect width="100" height="100" rx="22" fill="#ff5d8f"/>
  <!-- Mingo recoloured cream-on-pink: round body = note-head, neck = stem, beak = flag.
       Origin-relative (transform-box/transform-origin) transforms baked into plain
       transform lists so non-browser renderers match the browser. -->
  <g transform="translate(4.72 1.2) scale(0.8)">
    <g transform="matrix(0.94694, 0, 0, 0.95957, -2.137162, 2.470338)">
      <ellipse cx="45.087" cy="89.407" rx="26" ry="20" fill="#fff7ed"/>
      <ellipse cx="43.95" cy="71.893" rx="15.95" ry="8.893" fill="#ffd2e1" transform="translate(43.95 71.893) matrix(0.965926, -0.258819, 0.258819, 0.965926, -0.003185, 17.036661) translate(-43.95 -71.893)"/>
      <path d="M 66.511 93.064 C 74.676 76.666 78.76 52.067 72.634 27.471" stroke="#fff7ed" stroke-width="9" fill="none" stroke-linecap="round"/>
      <circle cx="74.464" cy="21.546" r="9" fill="#fff7ed"/>
      <polygon points="74.972 24.637 106.798 37.806 90.71 19.195" fill="#ffd166" transform="translate(87.21 32.693) matrix(0.965926, 0.258819, -0.258819, 0.965926, -0.000001, 0) translate(-87.21 -32.693)"/>
      <polygon points="104.799 42.104 100.417 32.249 93.225 35.031" fill="#3b2d3f"/>
      <circle cx="75.49" cy="21.062" r="2.8" fill="#3b2d3f"/>
      <circle cx="74.823" cy="20.461" r="1" fill="#fff"/>
      <circle cx="69.464" cy="24.546" r="2.2" fill="#ffb3cd" opacity="0.9"/>
    </g>
  </g>
</svg>
